<svg width="40" height="40" viewBox="0 0 40 40" fill="none" xmlns="http://www.w3.org/2000/svg">
<path d="M19.6604 0.590332C8.84215 0.590332 0.0878906 9.34459 0.0878906 20.1629C0.0878906 30.9811 8.84215 39.7354 19.6604 39.7354C30.4787 39.7354 39.233 30.9811 39.233 20.1629C39.233 9.34459 30.4787 0.590332 19.6604 0.590332ZM24.856 20.0917H21.4398C21.4398 25.5008 21.4398 32.1911 21.4398 32.1911H16.3865C16.3865 32.1911 16.3865 25.572 16.3865 20.0917H13.9666V15.8213H16.3865V13.0456C16.3865 11.0527 17.3117 7.99231 21.4398 7.99231H25.1407V12.1203C25.1407 12.1203 22.8632 12.1203 22.4362 12.1203C22.0091 12.1203 21.3686 12.3339 21.3686 13.2591V15.7502H25.2119L24.856 20.0917Z" fill="white"/>
</svg>
