<svg width="40" height="40" viewBox="0 0 40 40" fill="none" xmlns="http://www.w3.org/2000/svg">
<path d="M19.6597 0.590332C8.84142 0.590332 0.0871582 9.34459 0.0871582 20.1629C0.0871582 30.9811 8.84142 39.7354 19.6597 39.7354C30.478 39.7354 39.2322 30.9811 39.2322 20.1629C39.2322 9.34459 30.478 0.590332 19.6597 0.590332ZM24.8553 20.0917H21.439C21.439 25.5008 21.439 32.1911 21.439 32.1911H16.3857C16.3857 32.1911 16.3857 25.572 16.3857 20.0917H13.9659V15.8213H16.3857V13.0456C16.3857 11.0527 17.311 7.99231 21.439 7.99231H25.14V12.1203C25.14 12.1203 22.8625 12.1203 22.4354 12.1203C22.0084 12.1203 21.3678 12.3339 21.3678 13.2591V15.7502H25.2112L24.8553 20.0917Z" fill="#262626"/>
</svg>
