<svg width="40" height="40" viewBox="0 0 40 40" fill="none" xmlns="http://www.w3.org/2000/svg">
<path d="M20.0207 23.7928C21.9468 23.7928 23.5081 22.2314 23.5081 20.3053C23.5081 18.3793 21.9468 16.8179 20.0207 16.8179C18.0946 16.8179 16.5332 18.3793 16.5332 20.3053C16.5332 22.2314 18.0946 23.7928 20.0207 23.7928Z" fill="white"/>
<path d="M24.3625 11.7644H15.6083C14.3272 11.7644 13.1884 12.1914 12.4767 12.9032C11.7649 13.6149 11.3379 14.7537 11.3379 16.0348V24.789C11.3379 26.0702 11.7649 27.2089 12.5478 27.9918C13.3307 28.7035 14.3983 29.1306 15.6794 29.1306H24.3625C25.6436 29.1306 26.7824 28.7035 27.4941 27.9918C28.277 27.2801 28.7041 26.1413 28.7041 24.8602V16.0348C28.7041 14.7537 28.277 13.7572 27.5653 12.9032C26.7824 12.1203 25.7148 11.7644 24.3625 11.7644ZM20.021 25.7143C17.0317 25.7143 14.6118 23.2232 14.6118 20.3051C14.6118 17.3159 17.1029 14.896 20.021 14.896C22.9391 14.896 25.5013 17.3159 25.5013 20.3051C25.5013 23.2944 23.0102 25.7143 20.021 25.7143ZM25.6436 15.9636C24.9319 15.9636 24.3625 15.3942 24.3625 14.6825C24.3625 13.9708 24.9319 13.4014 25.6436 13.4014C26.3554 13.4014 26.9247 13.9708 26.9247 14.6825C26.9247 15.3942 26.3554 15.9636 25.6436 15.9636Z" fill="white"/>
<path d="M20.1634 0.590332C9.34509 0.590332 0.59082 9.34459 0.59082 20.1629C0.59082 30.9811 9.34509 39.7354 20.1634 39.7354C30.9816 39.7354 39.7359 30.9811 39.7359 20.1629C39.8071 9.34459 30.9816 0.590332 20.1634 0.590332ZM30.5546 24.7891C30.5546 26.6396 29.914 28.2054 28.7753 29.3442C27.6365 30.4829 26.0707 30.9811 24.2914 30.9811H15.6795C13.9001 30.9811 12.3343 30.4118 11.1956 29.3442C9.98564 28.2054 9.41626 26.6396 9.41626 24.7891V16.0348C9.41626 12.405 11.9073 9.8428 15.6083 9.8428H24.4337C26.2842 9.8428 27.7789 10.4834 28.9176 11.6221C30.0564 12.7609 30.5546 14.2555 30.5546 16.106V24.7891Z" fill="white"/>
</svg>
