<svg width="40" height="40" viewBox="0 0 40 40" fill="none" xmlns="http://www.w3.org/2000/svg">
<path d="M20.0204 23.7928C21.9465 23.7928 23.5079 22.2314 23.5079 20.3053C23.5079 18.3793 21.9465 16.8179 20.0204 16.8179C18.0944 16.8179 16.533 18.3793 16.533 20.3053C16.533 22.2314 18.0944 23.7928 20.0204 23.7928Z" fill="#262626"/>
<path d="M24.362 11.7644H15.6078C14.3267 11.7644 13.1879 12.1914 12.4762 12.9032C11.7644 13.6149 11.3374 14.7537 11.3374 16.0348V24.789C11.3374 26.0702 11.7644 27.2089 12.5473 27.9918C13.3302 28.7035 14.3978 29.1306 15.6789 29.1306H24.362C25.6432 29.1306 26.7819 28.7035 27.4936 27.9918C28.2765 27.2801 28.7036 26.1413 28.7036 24.8602V16.0348C28.7036 14.7537 28.2765 13.7572 27.5648 12.9032C26.7819 12.1203 25.7143 11.7644 24.362 11.7644ZM20.0205 25.7143C17.0312 25.7143 14.6114 23.2232 14.6114 20.3051C14.6114 17.3159 17.1024 14.896 20.0205 14.896C22.9386 14.896 25.5008 17.3159 25.5008 20.3051C25.5008 23.2944 23.0098 25.7143 20.0205 25.7143ZM25.6431 15.9636C24.9314 15.9636 24.362 15.3942 24.362 14.6825C24.362 13.9708 24.9314 13.4014 25.6431 13.4014C26.3549 13.4014 26.9243 13.9708 26.9243 14.6825C26.9243 15.3942 26.3549 15.9636 25.6431 15.9636Z" fill="#262626"/>
<path d="M20.1629 0.590332C9.3446 0.590332 0.590332 9.34459 0.590332 20.1629C0.590332 30.9811 9.3446 39.7354 20.1629 39.7354C30.9812 39.7354 39.7354 30.9811 39.7354 20.1629C39.8066 9.34459 30.9812 0.590332 20.1629 0.590332ZM30.5541 24.7891C30.5541 26.6396 29.9136 28.2054 28.7748 29.3442C27.636 30.4829 26.0702 30.9811 24.2909 30.9811H15.679C13.8997 30.9811 12.3339 30.4118 11.1951 29.3442C9.98515 28.2054 9.41577 26.6396 9.41577 24.7891V16.0348C9.41577 12.405 11.9068 9.8428 15.6078 9.8428H24.4332C26.2837 9.8428 27.7784 10.4834 28.9171 11.6221C30.0559 12.7609 30.5541 14.2555 30.5541 16.106V24.7891Z" fill="#262626"/>
</svg>
