<svg width="189" height="239" viewBox="0 0 189 239" fill="none" xmlns="http://www.w3.org/2000/svg">
<path d="M94.927 116.992L64.94 11.178L43.4976 112.693L40.8644 112.156L64.5638 0L94.7121 106.352L120.051 0.134351L131.847 43.852L129.24 44.5506L120.212 11.0436L94.927 116.992Z" fill="white"/>
<path d="M147.513 112.318L133.621 60.7272L136.2 60.0286L149.582 109.604L188.973 109.281L189 111.968L147.513 112.318Z" fill="white"/>
<path d="M125.155 238.606L95.0069 132.255L69.6684 238.472L57.8724 194.754L60.4788 194.056L69.5072 227.563L94.792 121.614L124.779 227.402L146.221 125.886L148.855 126.451L125.155 238.606Z" fill="white"/>
<path d="M53.5201 178.579L40.1388 128.977L0.747208 129.326L0.720337 126.639L42.2078 126.29L56.0996 177.88L53.5201 178.579Z" fill="white"/>
</svg>
