<svg width="74" height="92" viewBox="0 0 74 92" fill="none" xmlns="http://www.w3.org/2000/svg">
<path d="M37.0036 44.7825L25.5252 4.27893L17.3175 43.1368L16.3096 42.9311L25.3812 0.000244141L36.9213 40.7095L46.6204 0.0516708L51.1356 16.7859L50.1379 17.0533L46.6821 4.2275L37.0036 44.7825Z" fill="#262626"/>
<path d="M57.1324 42.9927L51.8149 23.245L52.8023 22.9775L57.9244 41.9539L73.0027 41.8305L73.013 42.859L57.1324 42.9927Z" fill="#262626"/>
<path d="M48.5742 91.3337L37.0341 50.6245L27.3351 91.2823L22.8198 74.5481L23.8175 74.2807L27.2734 87.1065L36.9518 46.5515L48.4302 87.0447L56.6379 48.1869L57.6459 48.4029L48.5742 91.3337Z" fill="#262626"/>
<path d="M21.154 68.3563L16.0319 49.3696L0.953645 49.5033L0.943359 48.4748L16.8239 48.3411L22.1414 68.0888L21.154 68.3563Z" fill="#262626"/>
</svg>
