<svg width="74" height="92" viewBox="0 0 74 92" fill="none" xmlns="http://www.w3.org/2000/svg">
<path d="M37.0036 44.7822L25.5252 4.27869L17.3175 43.1366L16.3096 42.9309L25.3812 0L36.9213 40.7092L46.6204 0.0514267L51.1356 16.7856L50.1379 17.053L46.6821 4.22726L37.0036 44.7822Z" fill="white"/>
<path d="M57.132 42.9925L51.8145 23.2447L52.8018 22.9773L57.9239 41.9537L73.0022 41.8303L73.0125 42.8588L57.132 42.9925Z" fill="white"/>
<path d="M48.5747 91.3335L37.0346 50.6242L27.3356 91.282L22.8203 74.5479L23.818 74.2804L27.2738 87.1062L36.9523 46.5513L48.4307 87.0445L56.6384 48.1866L57.6463 48.4026L48.5747 91.3335Z" fill="white"/>
<path d="M21.154 68.356L16.0319 49.3694L0.953645 49.5031L0.943359 48.4745L16.8239 48.3408L22.1414 68.0886L21.154 68.356Z" fill="white"/>
</svg>
