<svg width="112" height="112" viewBox="0 0 112 112" fill="none" xmlns="http://www.w3.org/2000/svg">
<path d="M56.3043 111.391C87.0641 111.391 112 86.4555 112 55.6957C112 24.9358 87.0641 0 56.3043 0C25.5444 0 0.608643 24.9358 0.608643 55.6957C0.608643 86.4555 25.5444 111.391 56.3043 111.391Z" fill="#262626"/>
<path d="M55.3299 55.934L44.2405 16.778L36.3039 54.3526L35.3292 54.1438L44.0913 12.6306L55.2503 51.9955L64.639 12.6803L68.9952 28.8619L68.0404 29.1205L64.6987 16.7183L55.3299 55.934Z" fill="white"/>
<path d="M74.8024 54.2034L69.6505 35.1077L70.6152 34.8491L75.5583 53.2088L90.1486 53.0795L90.1585 54.0741L74.8024 54.2034Z" fill="white"/>
<path d="M66.5282 100.958L55.3691 61.5835L45.9805 100.899L41.6243 84.7171L42.579 84.4585L45.9208 96.8607L55.2896 57.645L66.379 96.811L74.3156 59.2363L75.2903 59.4352L66.5282 100.958Z" fill="white"/>
<path d="M40.0033 78.7288L35.0603 60.379L20.47 60.4984L20.4601 59.5038L35.8162 59.3745L40.968 78.4702L40.0033 78.7288Z" fill="white"/>
</svg>
